<svg width="270" height="74" viewBox="0 0 270 74" fill="none" xmlns="http://www.w3.org/2000/svg">
<g filter="url(#filter0_d_523_40)">
<rect width="270" height="70" rx="5" fill="url(#paint0_linear_523_40)"/>
</g>
<mask id="mask0_523_40" style="mask-type:alpha" maskUnits="userSpaceOnUse" x="0" y="0" width="270" height="70">
<rect width="270" height="70" rx="5" fill="url(#paint1_linear_523_40)"/>
</mask>
<g mask="url(#mask0_523_40)">
<g filter="url(#filter1_f_523_40)">
<ellipse cx="134.5" cy="-37" rx="80.5" ry="57" fill="white" fill-opacity="0.81"/>
</g>
</g>
<path d="M76.5347 38.965L77.1647 37.54C77.6147 37.85 78.1047 38.09 78.6347 38.26C79.1747 38.42 79.7097 38.505 80.2397 38.515C80.7697 38.525 81.2497 38.465 81.6797 38.335C82.1197 38.205 82.4697 38.01 82.7297 37.75C82.9897 37.49 83.1197 37.165 83.1197 36.775C83.1197 36.305 82.9247 35.955 82.5347 35.725C82.1547 35.485 81.6347 35.365 80.9747 35.365H78.5297V33.835H80.8247C81.4147 33.835 81.8697 33.715 82.1897 33.475C82.5197 33.235 82.6847 32.91 82.6847 32.5C82.6847 32.16 82.5747 31.88 82.3547 31.66C82.1447 31.44 81.8547 31.275 81.4847 31.165C81.1247 31.055 80.7147 31.005 80.2547 31.015C79.8047 31.015 79.3347 31.085 78.8447 31.225C78.3547 31.355 77.8897 31.55 77.4497 31.81L76.8347 30.235C77.4947 29.885 78.1847 29.64 78.9047 29.5C79.6347 29.36 80.3397 29.32 81.0197 29.38C81.6997 29.44 82.3097 29.595 82.8497 29.845C83.3997 30.095 83.8397 30.425 84.1697 30.835C84.4997 31.235 84.6647 31.71 84.6647 32.26C84.6647 32.76 84.5297 33.205 84.2597 33.595C83.9997 33.975 83.6397 34.27 83.1797 34.48C82.7197 34.69 82.1847 34.795 81.5747 34.795L81.6497 34.315C82.3397 34.315 82.9397 34.435 83.4497 34.675C83.9697 34.905 84.3697 35.225 84.6497 35.635C84.9397 36.045 85.0847 36.52 85.0847 37.06C85.0847 37.57 84.9547 38.025 84.6947 38.425C84.4347 38.815 84.0797 39.145 83.6297 39.415C83.1797 39.675 82.6647 39.87 82.0847 40C81.5047 40.12 80.8947 40.165 80.2547 40.135C79.6147 40.105 78.9747 39.995 78.3347 39.805C77.7047 39.615 77.1047 39.335 76.5347 38.965ZM87.0259 40L91.7509 29.5H93.6709L98.4109 40H96.3709L92.3059 30.535H93.0859L89.0359 40H87.0259ZM89.2009 37.57L89.7259 36.04H95.3959L95.9209 37.57H89.2009ZM101.086 40V29.5H110.371V40H108.451V30.67L108.901 31.15H102.556L103.006 30.67V40H101.086ZM114.397 40V29.5H116.317V36.955L121.957 29.5H123.772V40H121.852V32.56L116.212 40H114.397ZM132.596 40.15C131.796 40.15 131.051 40.02 130.361 39.76C129.681 39.49 129.086 39.115 128.576 38.635C128.076 38.145 127.686 37.57 127.406 36.91C127.126 36.25 126.986 35.53 126.986 34.75C126.986 33.97 127.126 33.25 127.406 32.59C127.686 31.93 128.081 31.36 128.591 30.88C129.101 30.39 129.696 30.015 130.376 29.755C131.056 29.485 131.801 29.35 132.611 29.35C133.471 29.35 134.256 29.5 134.966 29.8C135.676 30.09 136.276 30.525 136.766 31.105L135.506 32.29C135.126 31.88 134.701 31.575 134.231 31.375C133.761 31.165 133.251 31.06 132.701 31.06C132.151 31.06 131.646 31.15 131.186 31.33C130.736 31.51 130.341 31.765 130.001 32.095C129.671 32.425 129.411 32.815 129.221 33.265C129.041 33.715 128.951 34.21 128.951 34.75C128.951 35.29 129.041 35.785 129.221 36.235C129.411 36.685 129.671 37.075 130.001 37.405C130.341 37.735 130.736 37.99 131.186 38.17C131.646 38.35 132.151 38.44 132.701 38.44C133.251 38.44 133.761 38.34 134.231 38.14C134.701 37.93 135.126 37.615 135.506 37.195L136.766 38.395C136.276 38.965 135.676 39.4 134.966 39.7C134.256 40 133.466 40.15 132.596 40.15ZM138.072 40L142.797 29.5H144.717L149.457 40H147.417L143.352 30.535H144.132L140.082 40H138.072ZM140.247 37.57L140.772 36.04H146.442L146.967 37.57H140.247ZM153.794 40V30.67L154.259 31.15H150.329V29.5H159.209V31.15H155.279L155.729 30.67V40H153.794ZM166.786 33.055C168.036 33.055 169.001 33.335 169.681 33.895C170.361 34.455 170.701 35.295 170.701 36.415C170.701 37.595 170.326 38.49 169.576 39.1C168.836 39.7 167.801 40 166.471 40H161.956V29.5H163.876V33.055H166.786ZM166.381 38.5C167.131 38.5 167.711 38.325 168.121 37.975C168.541 37.625 168.751 37.115 168.751 36.445C168.751 35.785 168.546 35.305 168.136 35.005C167.726 34.695 167.141 34.54 166.381 34.54H163.876V38.5H166.381ZM178.573 40.15C177.773 40.15 177.028 40.02 176.338 39.76C175.658 39.49 175.063 39.115 174.553 38.635C174.053 38.145 173.663 37.57 173.383 36.91C173.103 36.25 172.963 35.53 172.963 34.75C172.963 33.97 173.103 33.25 173.383 32.59C173.663 31.93 174.058 31.36 174.568 30.88C175.078 30.39 175.673 30.015 176.353 29.755C177.033 29.485 177.778 29.35 178.588 29.35C179.448 29.35 180.233 29.5 180.943 29.8C181.653 30.09 182.253 30.525 182.743 31.105L181.483 32.29C181.103 31.88 180.678 31.575 180.208 31.375C179.738 31.165 179.228 31.06 178.678 31.06C178.128 31.06 177.623 31.15 177.163 31.33C176.713 31.51 176.318 31.765 175.978 32.095C175.648 32.425 175.388 32.815 175.198 33.265C175.018 33.715 174.928 34.21 174.928 34.75C174.928 35.29 175.018 35.785 175.198 36.235C175.388 36.685 175.648 37.075 175.978 37.405C176.318 37.735 176.713 37.99 177.163 38.17C177.623 38.35 178.128 38.44 178.678 38.44C179.228 38.44 179.738 38.34 180.208 38.14C180.678 37.93 181.103 37.615 181.483 37.195L182.743 38.395C182.253 38.965 181.653 39.4 180.943 39.7C180.233 40 179.443 40.15 178.573 40.15ZM191.489 40V36.64L191.969 37.075H188.894C188.014 37.075 187.254 36.93 186.614 36.64C185.984 36.34 185.499 35.915 185.159 35.365C184.819 34.805 184.649 34.135 184.649 33.355C184.649 32.545 184.829 31.855 185.189 31.285C185.549 30.705 186.059 30.265 186.719 29.965C187.379 29.655 188.154 29.5 189.044 29.5H193.409V40H191.489ZM184.679 40L187.274 36.25H189.239L186.734 40H184.679ZM191.489 36.01V30.61L191.969 31.15H189.104C188.304 31.15 187.689 31.335 187.259 31.705C186.839 32.065 186.629 32.605 186.629 33.325C186.629 34.015 186.829 34.55 187.229 34.93C187.639 35.3 188.239 35.485 189.029 35.485H191.969L191.489 36.01Z" fill="#6A5300"/>
<defs>
<filter id="filter0_d_523_40" x="0" y="0" width="270" height="74" filterUnits="userSpaceOnUse" color-interpolation-filters="sRGB">
<feFlood flood-opacity="0" result="BackgroundImageFix"/>
<feColorMatrix in="SourceAlpha" type="matrix" values="0 0 0 0 0 0 0 0 0 0 0 0 0 0 0 0 0 0 127 0" result="hardAlpha"/>
<feOffset dy="4"/>
<feComposite in2="hardAlpha" operator="out"/>
<feColorMatrix type="matrix" values="0 0 0 0 0.783333 0 0 0 0 0.611307 0 0 0 0 0 0 0 0 1 0"/>
<feBlend mode="normal" in2="BackgroundImageFix" result="effect1_dropShadow_523_40"/>
<feBlend mode="normal" in="SourceGraphic" in2="effect1_dropShadow_523_40" result="shape"/>
</filter>
<filter id="filter1_f_523_40" x="-6" y="-154" width="281" height="234" filterUnits="userSpaceOnUse" color-interpolation-filters="sRGB">
<feFlood flood-opacity="0" result="BackgroundImageFix"/>
<feBlend mode="normal" in="SourceGraphic" in2="BackgroundImageFix" result="shape"/>
<feGaussianBlur stdDeviation="30" result="effect1_foregroundBlur_523_40"/>
</filter>
<linearGradient id="paint0_linear_523_40" x1="135" y1="0" x2="135" y2="70" gradientUnits="userSpaceOnUse">
<stop stop-color="#9BCFFF"/>
<stop offset="0.0001" stop-color="#FFF383"/>
<stop offset="1" stop-color="#FFC700"/>
</linearGradient>
<linearGradient id="paint1_linear_523_40" x1="135" y1="0" x2="135" y2="70" gradientUnits="userSpaceOnUse">
<stop stop-color="#7EB2FF"/>
<stop offset="1" stop-color="#0057FF"/>
</linearGradient>
</defs>
</svg>
