<svg width="77" height="8" viewBox="0 0 77 8" fill="none" xmlns="http://www.w3.org/2000/svg">
<path fill-rule="evenodd" clip-rule="evenodd" d="M50 8C52.2091 8 54 6.20914 54 4C54 1.79086 52.2091 0 50 0C47.7909 0 46 1.79086 46 4C46 6.20914 47.7909 8 50 8Z" fill="#E1E1E1"/>
<path fill-rule="evenodd" clip-rule="evenodd" d="M73 8C75.2091 8 77 6.20914 77 4C77 1.79086 75.2091 0 73 0C70.7909 0 69 1.79086 69 4C69 6.20914 70.7909 8 73 8Z" fill="#E1E1E1"/>
<path fill-rule="evenodd" clip-rule="evenodd" d="M27 8C29.2091 8 31 6.20914 31 4C31 1.79086 29.2091 0 27 0C24.7909 0 23 1.79086 23 4C23 6.20914 24.7909 8 27 8Z" fill="#FFC700"/>
<path fill-rule="evenodd" clip-rule="evenodd" d="M4 8C6.20914 8 8 6.20914 8 4C8 1.79086 6.20914 0 4 0C1.79086 0 0 1.79086 0 4C0 6.20914 1.79086 8 4 8Z" fill="#E1E1E1"/>
</svg>
