<svg width="210" height="41" viewBox="0 0 210 41" fill="none" xmlns="http://www.w3.org/2000/svg">
<g filter="url(#filter0_d_22732_2)">
<circle cx="190" cy="20" r="20" fill="url(#paint0_linear_22732_2)"/>
</g>
<path d="M191.728 20.5L186 14.6664L187.636 13L195 20.5L187.636 28L186 26.3336L191.728 20.5Z" fill="#6A5300"/>
<g filter="url(#filter1_d_22732_2)">
<circle cx="20" cy="20" r="20" transform="matrix(-1 0 0 1 40 0)" fill="url(#paint1_linear_22732_2)"/>
</g>
<path d="M18.2723 20.5L24 14.6664L22.3638 13L15 20.5L22.3638 28L24 26.3336L18.2723 20.5Z" fill="#6A5300"/>
<path fill-rule="evenodd" clip-rule="evenodd" d="M117 24C119.209 24 121 22.2091 121 20C121 17.7909 119.209 16 117 16C114.791 16 113 17.7909 113 20C113 22.2091 114.791 24 117 24Z" fill="#E1E1E1"/>
<path fill-rule="evenodd" clip-rule="evenodd" d="M140 24C142.209 24 144 22.2091 144 20C144 17.7909 142.209 16 140 16C137.791 16 136 17.7909 136 20C136 22.2091 137.791 24 140 24Z" fill="#E1E1E1"/>
<path fill-rule="evenodd" clip-rule="evenodd" d="M94 24C96.2091 24 98 22.2091 98 20C98 17.7909 96.2091 16 94 16C91.7909 16 90 17.7909 90 20C90 22.2091 91.7909 24 94 24Z" fill="#FFC700"/>
<path fill-rule="evenodd" clip-rule="evenodd" d="M71 24C73.2091 24 75 22.2091 75 20C75 17.7909 73.2091 16 71 16C68.7909 16 67 17.7909 67 20C67 22.2091 68.7909 24 71 24Z" fill="#E1E1E1"/>
<defs>
<filter id="filter0_d_22732_2" x="170" y="0" width="40" height="41" filterUnits="userSpaceOnUse" color-interpolation-filters="sRGB">
<feFlood flood-opacity="0" result="BackgroundImageFix"/>
<feColorMatrix in="SourceAlpha" type="matrix" values="0 0 0 0 0 0 0 0 0 0 0 0 0 0 0 0 0 0 127 0" result="hardAlpha"/>
<feOffset dy="1"/>
<feComposite in2="hardAlpha" operator="out"/>
<feColorMatrix type="matrix" values="0 0 0 0 0.783333 0 0 0 0 0.611307 0 0 0 0 0 0 0 0 1 0"/>
<feBlend mode="normal" in2="BackgroundImageFix" result="effect1_dropShadow_22732_2"/>
<feBlend mode="normal" in="SourceGraphic" in2="effect1_dropShadow_22732_2" result="shape"/>
</filter>
<filter id="filter1_d_22732_2" x="0" y="0" width="40" height="41" filterUnits="userSpaceOnUse" color-interpolation-filters="sRGB">
<feFlood flood-opacity="0" result="BackgroundImageFix"/>
<feColorMatrix in="SourceAlpha" type="matrix" values="0 0 0 0 0 0 0 0 0 0 0 0 0 0 0 0 0 0 127 0" result="hardAlpha"/>
<feOffset dy="1"/>
<feComposite in2="hardAlpha" operator="out"/>
<feColorMatrix type="matrix" values="0 0 0 0 0.783333 0 0 0 0 0.611307 0 0 0 0 0 0 0 0 1 0"/>
<feBlend mode="normal" in2="BackgroundImageFix" result="effect1_dropShadow_22732_2"/>
<feBlend mode="normal" in="SourceGraphic" in2="effect1_dropShadow_22732_2" result="shape"/>
</filter>
<linearGradient id="paint0_linear_22732_2" x1="190" y1="0" x2="190" y2="40" gradientUnits="userSpaceOnUse">
<stop stop-color="#9BCFFF"/>
<stop offset="0.0001" stop-color="#FFF8B6"/>
<stop offset="1" stop-color="#FFC700"/>
</linearGradient>
<linearGradient id="paint1_linear_22732_2" x1="20" y1="0" x2="20" y2="40" gradientUnits="userSpaceOnUse">
<stop stop-color="#9BCFFF"/>
<stop offset="0.0001" stop-color="#FFF8B6"/>
<stop offset="1" stop-color="#FFC700"/>
</linearGradient>
</defs>
</svg>
